<svg width="1879" height="627" className="w-[10rem] h-auto" viewBox="0 0 1879 627" fill="none" xmlns="http://www.w3.org/2000/svg">
              <path d="M120 166H1V126H286.5V166H167.5V483H120V166ZM319.109 126H361.609V262.5H362.609C365.943 254.5 370.609 247.833 376.609 242.5C382.609 236.833 389.276 232.333 396.609 229C404.276 225.333 412.109 222.667 420.109 221C428.443 219.333 436.443 218.5 444.109 218.5C461.109 218.5 475.276 220.833 486.609 225.5C497.943 230.167 507.109 236.667 514.109 245C521.109 253.333 525.943 263.333 528.609 275C531.609 286.333 533.109 299 533.109 313V483H490.609V308C490.609 292 485.943 279.333 476.609 270C467.276 260.667 454.443 256 438.109 256C425.109 256 413.776 258 404.109 262C394.776 266 386.943 271.667 380.609 279C374.276 286.333 369.443 295 366.109 305C363.109 314.667 361.609 325.333 361.609 337V483H319.109V126ZM776.441 329C775.775 319 773.441 309.5 769.441 300.5C765.775 291.5 760.608 283.833 753.941 277.5C747.608 270.833 739.941 265.667 730.941 262C722.275 258 712.608 256 701.941 256C690.941 256 680.941 258 671.941 262C663.275 265.667 655.775 270.833 649.441 277.5C643.108 284.167 638.108 292 634.441 301C630.775 309.667 628.608 319 627.941 329H776.441ZM817.441 401C811.775 430 799.275 451.833 779.941 466.5C760.608 481.167 736.275 488.5 706.941 488.5C686.275 488.5 668.275 485.167 652.941 478.5C637.941 471.833 625.275 462.5 614.941 450.5C604.608 438.5 596.775 424.167 591.441 407.5C586.441 390.833 583.608 372.667 582.941 353C582.941 333.333 585.941 315.333 591.941 299C597.941 282.667 606.275 268.5 616.941 256.5C627.941 244.5 640.775 235.167 655.441 228.5C670.441 221.833 686.775 218.5 704.441 218.5C727.441 218.5 746.441 223.333 761.441 233C776.775 242.333 788.941 254.333 797.941 269C807.275 283.667 813.608 299.667 816.941 317C820.608 334.333 822.108 350.833 821.441 366.5H627.941C627.608 377.833 628.941 388.667 631.941 399C634.941 409 639.775 418 646.441 426C653.108 433.667 661.608 439.833 671.941 444.5C682.275 449.167 694.441 451.5 708.441 451.5C726.441 451.5 741.108 447.333 752.441 439C764.108 430.667 771.775 418 775.441 401H817.441Z" fill="black" />
              <path d="M1155.5 319L1092 482.5C1091.67 483.833 1089.83 484.5 1086.5 484.5C1083.5 484.5 1081.67 483.833 1081 482.5L955.5 212C951.5 202.667 947.5 195.5 943.5 190.5C939.833 185.5 935.667 182 931 180C926.667 177.667 921.167 176.5 914.5 176.5C913.5 176.5 913 175.5 913 173.5C913 171.5 913.5 170.5 914.5 170.5C918.833 170.5 922.833 170.667 926.5 171C930.167 171.333 934.167 171.667 938.5 172C942.833 172 948.167 172 954.5 172C965.5 172 974.833 172 982.5 172C990.167 171.667 996.833 171.333 1002.5 171C1008.17 170.667 1013.33 170.5 1018 170.5C1019 170.5 1019.5 171.5 1019.5 173.5C1019.5 175.5 1019 176.5 1018 176.5C1004.67 176.5 996.167 179 992.5 184C989.167 188.667 990.833 198.5 997.5 213.5L1103.5 440L1084.5 467.5L1147.5 307.5L1155.5 319ZM1378.5 170.5C1379.5 170.5 1380 171.5 1380 173.5C1380 175.5 1379.5 176.5 1378.5 176.5C1367.17 176.5 1356.83 180.167 1347.5 187.5C1338.5 194.5 1330.83 206 1324.5 222L1222.5 482.5C1222.17 483.833 1220.33 484.5 1217 484.5C1214 484.5 1212.17 483.833 1211.5 482.5L1086 212C1080.67 200 1075 191.167 1069 185.5C1063.33 179.5 1056.17 176.5 1047.5 176.5C1046.5 176.5 1046 175.5 1046 173.5C1046 171.5 1046.5 170.5 1047.5 170.5C1051.83 170.5 1055.67 170.667 1059 171C1062.67 171.333 1066.5 171.667 1070.5 172C1074.5 172 1079.33 172 1085 172C1098.33 172 1108.33 171.833 1115 171.5C1122 170.833 1128.17 170.5 1133.5 170.5C1134.5 170.5 1135 171.5 1135 173.5C1135 175.5 1134.5 176.5 1133.5 176.5C1123.5 176.5 1118.17 178.667 1117.5 183C1117.17 187.333 1120.67 197.5 1128 213.5L1234 440L1215 467.5L1311.5 222C1317.17 207.333 1317.5 196.167 1312.5 188.5C1307.83 180.5 1297.5 176.5 1281.5 176.5C1280.5 176.5 1280 175.5 1280 173.5C1280 171.5 1280.5 170.5 1281.5 170.5C1289.5 170.5 1297.33 170.833 1305 171.5C1312.67 171.833 1322.33 172 1334 172C1343.67 172 1351.33 171.833 1357 171.5C1363 170.833 1370.17 170.5 1378.5 170.5ZM1150 307.5L1184.5 219.5C1190.5 204.5 1192.67 193.667 1191 187C1189.33 180 1183.33 176.5 1173 176.5C1172.33 176.5 1172 175.5 1172 173.5C1172 171.5 1172.33 170.5 1173 170.5C1176.67 170.5 1179.5 170.667 1181.5 171C1183.83 171.333 1186.67 171.667 1190 172C1193.33 172 1198.67 172 1206 172C1214.67 172 1221.83 171.833 1227.5 171.5C1233.17 170.833 1240 170.5 1248 170.5C1248.67 170.5 1249 171.5 1249 173.5C1249 175.5 1248.67 176.5 1248 176.5C1237 176.5 1227.33 179.833 1219 186.5C1210.67 193.167 1203.17 205 1196.5 222L1158 319L1150 307.5ZM1493.39 486C1492.05 486.667 1490.55 487 1488.89 487C1483.89 487 1479.05 483.333 1474.39 476C1470.05 468.333 1467.89 457.5 1467.89 443.5V355.5C1467.89 340.833 1466.55 329.167 1463.89 320.5C1461.55 311.833 1458.05 305.667 1453.39 302C1449.05 298 1443.89 296 1437.89 296C1430.55 296 1424.39 297.833 1419.39 301.5C1414.39 305.167 1410.55 310.167 1407.89 316.5C1405.55 322.5 1403.89 329.167 1402.89 336.5C1402.22 342.833 1400.22 348.167 1396.89 352.5C1393.89 356.5 1388.55 358.5 1380.89 358.5C1374.89 358.5 1370.22 357 1366.89 354C1363.55 351 1361.89 346.833 1361.89 341.5C1361.89 335.167 1365.05 328.833 1371.39 322.5C1377.72 315.833 1385.72 309.667 1395.39 304C1405.05 298.333 1415.05 293.833 1425.39 290.5C1436.05 287.167 1445.89 285.5 1454.89 285.5C1468.22 285.5 1479.39 290 1488.39 299C1497.39 307.667 1501.89 321.5 1501.89 340.5V429C1501.89 440 1503.39 448.167 1506.39 453.5C1509.39 458.833 1514.22 461.5 1520.89 461.5C1526.55 461.5 1533.89 459.667 1542.89 456C1544.22 455.333 1545.22 456 1545.89 458C1546.89 459.667 1546.55 460.833 1544.89 461.5L1493.39 486ZM1392.89 486.5C1382.22 486.5 1374.05 483.667 1368.39 478C1362.72 472.333 1359.89 465.167 1359.89 456.5C1359.89 446.167 1363.89 438.333 1371.89 433C1379.89 427.667 1392.72 422 1410.39 416L1472.89 394.5L1474.39 400.5L1423.39 420C1415.39 423 1409.72 426.333 1406.39 430C1403.05 433.667 1401.39 438.333 1401.39 444C1401.39 451 1403.39 456.5 1407.39 460.5C1411.39 464.5 1416.55 466.5 1422.89 466.5C1426.22 466.5 1429.72 466 1433.39 465C1437.05 464 1440.89 462.667 1444.89 461L1482.89 441L1483.39 448L1440.39 471.5C1430.72 476.5 1422.05 480.333 1414.39 483C1407.05 485.333 1399.89 486.5 1392.89 486.5ZM1564.35 483C1563.68 483 1563.35 482 1563.35 480C1563.35 478 1563.68 477 1564.35 477C1576.68 477 1584.68 474.833 1588.35 470.5C1592.35 465.833 1594.35 456.5 1594.35 442.5L1594.85 185.5C1594.85 173.833 1593.68 165.333 1591.35 160C1589.35 154.667 1585.35 152 1579.35 152C1574.35 152 1567.18 154.167 1557.85 158.5C1556.51 159.167 1555.35 158.5 1554.35 156.5C1553.68 154.5 1553.85 153.333 1554.85 153L1621.85 121C1622.51 120.667 1623.18 120.5 1623.85 120.5C1624.85 120.5 1626.01 121 1627.35 122C1629.01 123 1629.85 124.167 1629.85 125.5V442.5C1629.85 456.167 1631.68 465.333 1635.35 470C1639.01 474.667 1647.01 477 1659.35 477C1660.68 477 1661.35 478 1661.35 480C1661.35 482 1660.68 483 1659.35 483C1653.35 483 1646.18 482.833 1637.85 482.5C1629.85 482.167 1621.18 482 1611.85 482C1602.85 482 1594.18 482.167 1585.85 482.5C1577.85 482.833 1570.68 483 1564.35 483ZM1694.72 483C1694.05 483 1693.72 482 1693.72 480C1693.72 478 1694.05 477 1694.72 477C1707.05 477 1715.05 474.833 1718.72 470.5C1722.72 465.833 1724.72 456.5 1724.72 442.5L1725.22 185.5C1725.22 173.833 1724.05 165.333 1721.72 160C1719.72 154.667 1715.72 152 1709.72 152C1704.72 152 1697.55 154.167 1688.22 158.5C1686.89 159.167 1685.72 158.5 1684.72 156.5C1684.05 154.5 1684.22 153.333 1685.22 153L1752.22 121C1752.89 120.667 1753.55 120.5 1754.22 120.5C1755.22 120.5 1756.39 121 1757.72 122C1759.39 123 1760.22 124.167 1760.22 125.5V442.5C1760.22 456.167 1762.05 465.333 1765.72 470C1769.39 474.667 1777.39 477 1789.72 477C1791.05 477 1791.72 478 1791.72 480C1791.72 482 1791.05 483 1789.72 483C1783.72 483 1776.55 482.833 1768.22 482.5C1760.22 482.167 1751.55 482 1742.22 482C1733.22 482 1724.55 482.167 1716.22 482.5C1708.22 482.833 1701.05 483 1694.72 483Z" fill="black" />
            </svg>